<?xml version="1.0" encoding="utf-8"?>
<svg version="1.1" xmlns:xlink="http://www.w3.org/1999/xlink" width="126px" height="58px" xmlns="http://www.w3.org/2000/svg">
  <g transform="matrix(1 0 0 1 -448 -1869 )">
    <path d="M 550.8057410286984 1869.5  C 550.8057410286984 1869.5  554.5168431072929 1870.3541425418987  554.5168431072929 1870.3541425418987  C 554.5168431072929 1870.3541425418987  573.4204209373207 1898  573.4204209373207 1898  C 573.4204209373207 1898  554.5168431072929 1925.6458574581013  554.5168431072929 1925.6458574581013  C 554.5168431072929 1925.6458574581013  550.8057410286984 1926.5  550.8057410286984 1926.5  C 550.8057410286984 1926.5  448.5 1926.5  448.5 1926.5  C 448.5 1926.5  448.5 1869.5  448.5 1869.5  C 448.5 1869.5  550.8057410286984 1869.5  550.8057410286984 1869.5  Z " fill-rule="nonzero" fill="#ffffff" stroke="none" />
    <path d="M 550.8057410286984 1869.5  C 550.8057410286984 1869.5  554.5168431072929 1870.3541425418987  554.5168431072929 1870.3541425418987  C 554.5168431072929 1870.3541425418987  573.4204209373207 1898  573.4204209373207 1898  C 573.4204209373207 1898  554.5168431072929 1925.6458574581013  554.5168431072929 1925.6458574581013  C 554.5168431072929 1925.6458574581013  550.8057410286984 1926.5  550.8057410286984 1926.5  C 550.8057410286984 1926.5  448.5 1926.5  448.5 1926.5  C 448.5 1926.5  448.5 1869.5  448.5 1869.5  C 448.5 1869.5  550.8057410286984 1869.5  550.8057410286984 1869.5  Z " stroke-width="1" stroke="#8c8c8c" fill="none" />
  </g>
</svg>