<?xml version="1.0" encoding="utf-8"?>
<svg version="1.1" xmlns:xlink="http://www.w3.org/1999/xlink" width="126px" height="58px" xmlns="http://www.w3.org/2000/svg">
  <g transform="matrix(1 0 0 1 -407 -1869 )">
    <path d="M 509.8057410286985 1869.5  C 509.8057410286985 1869.5  513.5168431072929 1870.3541425418987  513.5168431072929 1870.3541425418987  C 513.5168431072929 1870.3541425418987  532.4204209373207 1898  532.4204209373207 1898  C 532.4204209373207 1898  513.5168431072929 1925.6458574581013  513.5168431072929 1925.6458574581013  C 513.5168431072929 1925.6458574581013  509.8057410286985 1926.5  509.8057410286985 1926.5  C 509.8057410286985 1926.5  407.5 1926.5  407.5 1926.5  C 407.5 1926.5  407.5 1869.5  407.5 1869.5  C 407.5 1869.5  509.8057410286985 1869.5  509.8057410286985 1869.5  Z " fill-rule="nonzero" fill="#ffffff" stroke="none" />
    <path d="M 509.8057410286985 1869.5  C 509.8057410286985 1869.5  513.5168431072929 1870.3541425418987  513.5168431072929 1870.3541425418987  C 513.5168431072929 1870.3541425418987  532.4204209373207 1898  532.4204209373207 1898  C 532.4204209373207 1898  513.5168431072929 1925.6458574581013  513.5168431072929 1925.6458574581013  C 513.5168431072929 1925.6458574581013  509.8057410286985 1926.5  509.8057410286985 1926.5  C 509.8057410286985 1926.5  407.5 1926.5  407.5 1926.5  C 407.5 1926.5  407.5 1869.5  407.5 1869.5  C 407.5 1869.5  509.8057410286985 1869.5  509.8057410286985 1869.5  Z " stroke-width="1" stroke="#8c8c8c" fill="none" />
  </g>
</svg>