<?xml version="1.0" encoding="utf-8"?>
<svg version="1.1" xmlns:xlink="http://www.w3.org/1999/xlink" width="116px" height="53px" xmlns="http://www.w3.org/2000/svg">
  <g transform="matrix(1 0 0 1 -32 -1878 )">
    <path d="M 126.80745821817472 1878.5  C 126.80745821817472 1878.5  130.5144750566107 1879.3468616053324  130.5144750566107 1879.3468616053324  C 130.5144750566107 1879.3468616053324  147.42335030089671 1904.5  147.42335030089671 1904.5  C 147.42335030089671 1904.5  130.5144750566107 1929.6531383946676  130.5144750566107 1929.6531383946676  C 130.5144750566107 1929.6531383946676  126.80745821817472 1930.5  126.80745821817472 1930.5  C 126.80745821817472 1930.5  32.499999999999986 1930.5  32.499999999999986 1930.5  C 32.499999999999986 1930.5  32.5 1878.5  32.5 1878.5  C 32.5 1878.5  126.80745821817472 1878.5  126.80745821817472 1878.5  Z " fill-rule="nonzero" fill="#ffffff" stroke="none" />
    <path d="M 126.80745821817472 1878.5  C 126.80745821817472 1878.5  130.5144750566107 1879.3468616053324  130.5144750566107 1879.3468616053324  C 130.5144750566107 1879.3468616053324  147.42335030089671 1904.5  147.42335030089671 1904.5  C 147.42335030089671 1904.5  130.5144750566107 1929.6531383946676  130.5144750566107 1929.6531383946676  C 130.5144750566107 1929.6531383946676  126.80745821817472 1930.5  126.80745821817472 1930.5  C 126.80745821817472 1930.5  32.499999999999986 1930.5  32.499999999999986 1930.5  C 32.499999999999986 1930.5  32.5 1878.5  32.5 1878.5  C 32.5 1878.5  126.80745821817472 1878.5  126.80745821817472 1878.5  Z " stroke-width="1" stroke="#8c8c8c" fill="none" />
  </g>
</svg>