<?xml version="1.0" encoding="utf-8"?>
<svg version="1.1" xmlns:xlink="http://www.w3.org/1999/xlink" width="116px" height="53px" xmlns="http://www.w3.org/2000/svg">
  <g transform="matrix(1 0 0 1 -137 -1878 )">
    <path d="M 231.8074582181747 1878.5  C 231.8074582181747 1878.5  235.5144750566107 1879.3468616053324  235.5144750566107 1879.3468616053324  C 235.5144750566107 1879.3468616053324  252.42335030089671 1904.5  252.42335030089671 1904.5  C 252.42335030089671 1904.5  235.5144750566107 1929.6531383946676  235.5144750566107 1929.6531383946676  C 235.5144750566107 1929.6531383946676  231.8074582181747 1930.5  231.8074582181747 1930.5  C 231.8074582181747 1930.5  137.49999999999997 1930.5  137.49999999999997 1930.5  C 137.49999999999997 1930.5  137.5 1878.5  137.5 1878.5  C 137.5 1878.5  231.8074582181747 1878.5  231.8074582181747 1878.5  Z " fill-rule="nonzero" fill="#169bd5" stroke="none" />
    <path d="M 231.8074582181747 1878.5  C 231.8074582181747 1878.5  235.5144750566107 1879.3468616053324  235.5144750566107 1879.3468616053324  C 235.5144750566107 1879.3468616053324  252.42335030089671 1904.5  252.42335030089671 1904.5  C 252.42335030089671 1904.5  235.5144750566107 1929.6531383946676  235.5144750566107 1929.6531383946676  C 235.5144750566107 1929.6531383946676  231.8074582181747 1930.5  231.8074582181747 1930.5  C 231.8074582181747 1930.5  137.49999999999997 1930.5  137.49999999999997 1930.5  C 137.49999999999997 1930.5  137.5 1878.5  137.5 1878.5  C 137.5 1878.5  231.8074582181747 1878.5  231.8074582181747 1878.5  Z " stroke-width="1" stroke="#169bd5" fill="none" />
  </g>
</svg>