<?xml version="1.0" encoding="utf-8"?>
<svg version="1.1" xmlns:xlink="http://www.w3.org/1999/xlink" width="350px" height="80px" xmlns="http://www.w3.org/2000/svg">
  <g transform="matrix(1 0 0 1 -448 -1869 )">
    <path d="M 766.2382742416254 1869.5  C 766.2382742416254 1869.5  769.7656564457432 1869.9031293947562  769.7656564457432 1869.9031293947562  C 769.7656564457432 1869.9031293947562  797.4498567298028 1909  797.4498567298028 1909  C 797.4498567298028 1909  769.7656564457432 1948.0968706052438  769.7656564457432 1948.0968706052438  C 769.7656564457432 1948.0968706052438  766.2382742416253 1948.5  766.2382742416253 1948.5  C 766.2382742416253 1948.5  448.5 1948.5  448.5 1948.5  C 448.5 1948.5  448.5 1869.5  448.5 1869.5  C 448.5 1869.5  766.2382742416254 1869.5  766.2382742416254 1869.5  Z " fill-rule="nonzero" fill="#169bd5" stroke="none" />
    <path d="M 766.2382742416254 1869.5  C 766.2382742416254 1869.5  769.7656564457432 1869.9031293947562  769.7656564457432 1869.9031293947562  C 769.7656564457432 1869.9031293947562  797.4498567298028 1909  797.4498567298028 1909  C 797.4498567298028 1909  769.7656564457432 1948.0968706052438  769.7656564457432 1948.0968706052438  C 769.7656564457432 1948.0968706052438  766.2382742416253 1948.5  766.2382742416253 1948.5  C 766.2382742416253 1948.5  448.5 1948.5  448.5 1948.5  C 448.5 1948.5  448.5 1869.5  448.5 1869.5  C 448.5 1869.5  766.2382742416254 1869.5  766.2382742416254 1869.5  Z " stroke-width="1" stroke="#169bd5" fill="none" />
  </g>
</svg>