<?xml version="1.0" encoding="utf-8"?>
<svg version="1.1" xmlns:xlink="http://www.w3.org/1999/xlink" width="126px" height="58px" xmlns="http://www.w3.org/2000/svg">
  <g transform="matrix(1 0 0 1 -131 -1873 )">
    <path d="M 233.8057410286985 1873.5  C 233.8057410286985 1873.5  237.5168431072929 1874.3541425418987  237.5168431072929 1874.3541425418987  C 237.5168431072929 1874.3541425418987  256.4204209373208 1902  256.4204209373208 1902  C 256.4204209373208 1902  237.5168431072929 1929.6458574581013  237.5168431072929 1929.6458574581013  C 237.5168431072929 1929.6458574581013  233.8057410286985 1930.5  233.8057410286985 1930.5  C 233.8057410286985 1930.5  131.5 1930.5  131.5 1930.5  C 131.5 1930.5  131.5 1873.5  131.5 1873.5  C 131.5 1873.5  233.8057410286985 1873.5  233.8057410286985 1873.5  Z " fill-rule="nonzero" fill="#169bd5" stroke="none" />
    <path d="M 233.8057410286985 1873.5  C 233.8057410286985 1873.5  237.5168431072929 1874.3541425418987  237.5168431072929 1874.3541425418987  C 237.5168431072929 1874.3541425418987  256.4204209373208 1902  256.4204209373208 1902  C 256.4204209373208 1902  237.5168431072929 1929.6458574581013  237.5168431072929 1929.6458574581013  C 237.5168431072929 1929.6458574581013  233.8057410286985 1930.5  233.8057410286985 1930.5  C 233.8057410286985 1930.5  131.5 1930.5  131.5 1930.5  C 131.5 1930.5  131.5 1873.5  131.5 1873.5  C 131.5 1873.5  233.8057410286985 1873.5  233.8057410286985 1873.5  Z " stroke-width="1" stroke="#169bd5" fill="none" />
  </g>
</svg>