<?xml version="1.0" encoding="utf-8"?>
<svg version="1.1" xmlns:xlink="http://www.w3.org/1999/xlink" width="155px" height="42px" xmlns="http://www.w3.org/2000/svg">
  <g transform="matrix(1 0 0 1 -197 -1297 )">
    <path d="M 197.5 1321.1195652173913  C 197.5 1321.1195652173913  197.5 1302  197.5 1302  C 197.5 1299.5147186257614  199.51471862576142 1297.5  202 1297.5  C 202 1297.5  347 1297.5  347 1297.5  C 349.4852813742386 1297.5  351.5 1299.5147186257614  351.5 1302  C 351.5 1302  351.5 1321.1195652173913  351.5 1321.1195652173913  C 351.5 1323.60484659163  349.4852813742386 1325.6195652173913  347 1325.6195652173913  C 347 1325.6195652173913  285.46040578296504 1325.6195652173913  285.46040578296504 1325.6195652173913  C 285.46040578296504 1325.6195652173913  274.8946712587817 1337.1921023865216  274.8946712587817 1337.1921023865216  C 274.8946712587817 1337.1921023865216  265.9260327293144 1325.6195652173913  265.9260327293144 1325.6195652173913  C 265.9260327293144 1325.6195652173913  202 1325.6195652173913  202 1325.6195652173913  C 199.51471862576142 1325.6195652173913  197.5 1323.60484659163  197.5 1321.1195652173913  Z " fill-rule="nonzero" fill="#ffffff" stroke="none" />
    <path d="M 197 1321.1195652173913  C 197 1321.1195652173913  197 1302  197 1302  C 197 1299.238576250846  199.23857625084602 1297  202 1297  C 202 1297  347 1297  347 1297  C 349.761423749154 1297  352 1299.238576250846  352 1302  C 352 1302  352 1321.1195652173913  352 1321.1195652173913  C 352 1323.8809889665454  349.761423749154 1326.1195652173913  347 1326.1195652173913  C 347 1326.1195652173913  285.68095238095236 1326.1195652173913  285.68095238095236 1326.1195652173913  C 285.68095238095236 1326.1195652173913  274.86336996336996 1337.9679487179487  274.86336996336996 1337.9679487179487  C 274.86336996336996 1337.9679487179487  265.68095238095236 1326.1195652173913  265.68095238095236 1326.1195652173913  C 265.68095238095236 1326.1195652173913  202 1326.1195652173913  202 1326.1195652173913  C 199.23857625084602 1326.1195652173913  197 1323.8809889665454  197 1321.1195652173913  Z M 198 1321.1195652173913  C 198 1323.3287042167144  199.7908610006768 1325.1195652173913  202 1325.1195652173913  C 202 1325.1195652173913  266.1711130776765 1325.1195652173913  266.1711130776765 1325.1195652173913  C 266.1711130776765 1325.1195652173913  274.9259725541935 1336.4162560550944  274.9259725541935 1336.4162560550944  C 274.9259725541935 1336.4162560550944  285.2398591849777 1325.1195652173913  285.2398591849777 1325.1195652173913  C 285.2398591849777 1325.1195652173913  347 1325.1195652173913  347 1325.1195652173913  C 349.20913899932316 1325.1195652173913  351 1323.3287042167144  351 1321.1195652173913  C 351 1321.1195652173913  351 1302  351 1302  C 351 1299.7908610006768  349.20913899932316 1298  347 1298  C 347 1298  202 1298  202 1298  C 199.7908610006768 1298  198 1299.7908610006768  198 1302  C 198 1302  198 1321.1195652173913  198 1321.1195652173913  Z " fill-rule="nonzero" fill="#d7d7d7" stroke="none" />
  </g>
</svg>