<?xml version="1.0" encoding="utf-8"?>
<svg version="1.1" xmlns:xlink="http://www.w3.org/1999/xlink" width="186px" height="64px" xmlns="http://www.w3.org/2000/svg">
  <g transform="matrix(1 0 0 1 -12 -2094 )">
    <path d="M 12.5 2133.3726708074532  C 12.5 2133.3726708074532  12.5 2099  12.5 2099  C 12.5 2096.5147186257614  14.51471862576143 2094.5  17 2094.5  C 17 2094.5  193 2094.5  193 2094.5  C 195.48528137423858 2094.5  197.5 2096.5147186257614  197.5 2099  C 197.5 2099  197.5 2133.3726708074532  197.5 2133.3726708074532  C 197.5 2135.857952181692  195.48528137423858 2137.8726708074532  193 2137.8726708074532  C 193 2137.8726708074532  117.35221538796209 2137.8726708074532  117.35221538796209 2137.8726708074532  C 117.35221538796209 2137.8726708074532  105.47331023356541 2155.4781718525905  105.47331023356541 2155.4781718525905  C 105.47331023356541 2155.4781718525905  95.50778577517869 2137.8726708074532  95.50778577517869 2137.8726708074532  C 95.50778577517869 2137.8726708074532  17 2137.8726708074532  17 2137.8726708074532  C 14.51471862576143 2137.8726708074532  12.5 2135.857952181692  12.5 2133.3726708074532  Z " fill-rule="nonzero" fill="#ffffff" stroke="none" />
    <path d="M 12 2133.3726708074532  C 12 2133.3726708074532  12 2099  12 2099  C 12 2096.238576250846  14.238576250846034 2094  17 2094  C 17 2094  193 2094  193 2094  C 195.76142374915398 2094  198 2096.238576250846  198 2099  C 198 2099  198 2133.3726708074532  198 2133.3726708074532  C 198 2136.1340945566076  195.76142374915398 2138.3726708074532  193 2138.3726708074532  C 193 2138.3726708074532  117.61802197802199 2138.3726708074532  117.61802197802199 2138.3726708074532  C 117.61802197802199 2138.3726708074532  105.43604395604396 2156.42735042735  105.43604395604396 2156.42735042735  C 105.43604395604396 2156.42735042735  95.21626373626374 2138.3726708074532  95.21626373626374 2138.3726708074532  C 95.21626373626374 2138.3726708074532  17 2138.3726708074532  17 2138.3726708074532  C 14.238576250846034 2138.3726708074532  12 2136.1340945566076  12 2133.3726708074532  Z M 13 2133.3726708074532  C 13 2135.5818098067766  14.790861000676827 2137.3726708074532  17 2137.3726708074532  C 17 2137.3726708074532  95.79930781409412 2137.3726708074532  95.79930781409412 2137.3726708074532  C 95.79930781409412 2137.3726708074532  105.51057651108688 2154.528993277831  105.51057651108688 2154.528993277831  C 105.51057651108688 2154.528993277831  117.08640879790224 2137.3726708074532  117.08640879790224 2137.3726708074532  C 117.08640879790224 2137.3726708074532  193 2137.3726708074532  193 2137.3726708074532  C 195.2091389993232 2137.3726708074532  197 2135.5818098067766  197 2133.3726708074532  C 197 2133.3726708074532  197 2099  197 2099  C 197 2096.7908610006766  195.2091389993232 2095  193 2095  C 193 2095  17 2095  17 2095  C 14.790861000676827 2095  13 2096.7908610006766  13 2099  C 13 2099  13 2133.3726708074532  13 2133.3726708074532  Z " fill-rule="nonzero" fill="#d7d7d7" stroke="none" />
  </g>
</svg>