<?xml version="1.0" encoding="utf-8"?>
<svg version="1.1" xmlns:xlink="http://www.w3.org/1999/xlink" width="184px" height="50px" xmlns="http://www.w3.org/2000/svg">
  <g transform="matrix(1 0 0 1 -191 -1237 )">
    <path d="M 191.5 1266.666149068323  C 191.5 1266.666149068323  191.5 1242  191.5 1242  C 191.5 1239.5147186257614  193.51471862576142 1237.5  196 1237.5  C 196 1237.5  370 1237.5  370 1237.5  C 372.4852813742386 1237.5  374.5 1239.5147186257614  374.5 1242  C 374.5 1242  374.5 1266.666149068323  374.5 1266.666149068323  C 374.5 1269.1514304425616  372.4852813742386 1271.166149068323  370 1271.166149068323  C 370 1271.166149068323  295.25189079159225 1271.166149068323  295.25189079159225 1271.166149068323  C 295.25189079159225 1271.166149068323  283.46586494279825 1284.9612383459641  283.46586494279825 1284.9612383459641  C 283.46586494279825 1284.9612383459641  273.57825936495107 1271.166149068323  273.57825936495107 1271.166149068323  C 273.57825936495107 1271.166149068323  196 1271.166149068323  196 1271.166149068323  C 193.51471862576142 1271.166149068323  191.5 1269.1514304425616  191.5 1266.666149068323  Z " fill-rule="nonzero" fill="#ffffff" stroke="none" />
    <path d="M 191 1266.666149068323  C 191 1266.666149068323  191 1242  191 1242  C 191 1239.238576250846  193.23857625084602 1237  196 1237  C 196 1237  370 1237  370 1237  C 372.761423749154 1237  375 1239.238576250846  375 1242  C 375 1242  375 1266.666149068323  375 1266.666149068323  C 375 1269.4275728174769  372.761423749154 1271.666149068323  370 1271.666149068323  C 370 1271.666149068323  295.4823443223443 1271.666149068323  295.4823443223443 1271.666149068323  C 295.4823443223443 1271.666149068323  283.43135531135533 1285.7713675213674  283.43135531135533 1285.7713675213674  C 283.43135531135533 1285.7713675213674  273.32146520146523 1271.666149068323  273.32146520146523 1271.666149068323  C 273.32146520146523 1271.666149068323  196 1271.666149068323  196 1271.666149068323  C 193.23857625084602 1271.666149068323  191 1269.4275728174769  191 1266.666149068323  Z M 192 1266.666149068323  C 192 1268.8752880676461  193.7908610006768 1270.666149068323  196 1270.666149068323  C 196 1270.666149068323  273.8350535284368 1270.666149068323  273.8350535284368 1270.666149068323  C 273.8350535284368 1270.666149068323  283.50037457424116 1284.151109170561  283.50037457424116 1284.151109170561  C 283.50037457424116 1284.151109170561  295.0214372608401 1270.666149068323  295.0214372608401 1270.666149068323  C 295.0214372608401 1270.666149068323  370 1270.666149068323  370 1270.666149068323  C 372.20913899932316 1270.666149068323  374 1268.8752880676461  374 1266.666149068323  C 374 1266.666149068323  374 1242  374 1242  C 374 1239.7908610006768  372.20913899932316 1238  370 1238  C 370 1238  196 1238  196 1238  C 193.7908610006768 1238  192 1239.7908610006768  192 1242  C 192 1242  192 1266.666149068323  192 1266.666149068323  Z " fill-rule="nonzero" fill="#d7d7d7" stroke="none" />
  </g>
</svg>