<?xml version="1.0" encoding="utf-8"?>
<svg version="1.1" xmlns:xlink="http://www.w3.org/1999/xlink" width="184px" height="50px" xmlns="http://www.w3.org/2000/svg">
  <g transform="matrix(1 0 0 1 -191 -1305 )">
    <path d="M 191.5 1334.666149068323  C 191.5 1334.666149068323  191.5 1310  191.5 1310  C 191.5 1307.5147186257614  193.51471862576142 1305.5  196 1305.5  C 196 1305.5  370 1305.5  370 1305.5  C 372.4852813742386 1305.5  374.5 1307.5147186257614  374.5 1310  C 374.5 1310  374.5 1334.666149068323  374.5 1334.666149068323  C 374.5 1337.1514304425616  372.4852813742386 1339.166149068323  370 1339.166149068323  C 370 1339.166149068323  295.25189079159225 1339.166149068323  295.25189079159225 1339.166149068323  C 295.25189079159225 1339.166149068323  283.46586494279825 1352.9612383459641  283.46586494279825 1352.9612383459641  C 283.46586494279825 1352.9612383459641  273.57825936495107 1339.166149068323  273.57825936495107 1339.166149068323  C 273.57825936495107 1339.166149068323  196 1339.166149068323  196 1339.166149068323  C 193.51471862576142 1339.166149068323  191.5 1337.1514304425616  191.5 1334.666149068323  Z " fill-rule="nonzero" fill="#ffffff" stroke="none" />
    <path d="M 191 1334.666149068323  C 191 1334.666149068323  191 1310  191 1310  C 191 1307.238576250846  193.23857625084602 1305  196 1305  C 196 1305  370 1305  370 1305  C 372.761423749154 1305  375 1307.238576250846  375 1310  C 375 1310  375 1334.666149068323  375 1334.666149068323  C 375 1337.4275728174769  372.761423749154 1339.666149068323  370 1339.666149068323  C 370 1339.666149068323  295.4823443223443 1339.666149068323  295.4823443223443 1339.666149068323  C 295.4823443223443 1339.666149068323  283.43135531135533 1353.7713675213674  283.43135531135533 1353.7713675213674  C 283.43135531135533 1353.7713675213674  273.32146520146523 1339.666149068323  273.32146520146523 1339.666149068323  C 273.32146520146523 1339.666149068323  196 1339.666149068323  196 1339.666149068323  C 193.23857625084602 1339.666149068323  191 1337.4275728174769  191 1334.666149068323  Z M 192 1334.666149068323  C 192 1336.8752880676461  193.7908610006768 1338.666149068323  196 1338.666149068323  C 196 1338.666149068323  273.8350535284368 1338.666149068323  273.8350535284368 1338.666149068323  C 273.8350535284368 1338.666149068323  283.50037457424116 1352.151109170561  283.50037457424116 1352.151109170561  C 283.50037457424116 1352.151109170561  295.0214372608401 1338.666149068323  295.0214372608401 1338.666149068323  C 295.0214372608401 1338.666149068323  370 1338.666149068323  370 1338.666149068323  C 372.20913899932316 1338.666149068323  374 1336.8752880676461  374 1334.666149068323  C 374 1334.666149068323  374 1310  374 1310  C 374 1307.7908610006768  372.20913899932316 1306  370 1306  C 370 1306  196 1306  196 1306  C 193.7908610006768 1306  192 1307.7908610006768  192 1310  C 192 1310  192 1334.666149068323  192 1334.666149068323  Z " fill-rule="nonzero" fill="#d7d7d7" stroke="none" />
  </g>
</svg>