<?xml version="1.0" encoding="utf-8"?>
<svg version="1.1" xmlns:xlink="http://www.w3.org/1999/xlink" width="200px" height="50px" xmlns="http://www.w3.org/2000/svg">
  <g transform="matrix(1 0 0 1 -244 -1237 )">
    <path d="M 244.5 1266.666149068323  C 244.5 1266.666149068323  244.5 1242  244.5 1242  C 244.5 1239.5147186257614  246.51471862576142 1237.5  249 1237.5  C 249 1237.5  439 1237.5  439 1237.5  C 441.4852813742386 1237.5  443.5 1239.5147186257614  443.5 1242  C 443.5 1242  443.5 1266.666149068323  443.5 1266.666149068323  C 443.5 1269.1514304425616  441.4852813742386 1271.166149068323  439 1271.166149068323  C 439 1271.166149068323  357.34974438379 1271.166149068323  357.34974438379 1271.166149068323  C 357.34974438379 1271.166149068323  344.50224710011383 1285.0006497178736  344.50224710011383 1285.0006497178736  C 344.50224710011383 1285.0006497178736  333.7241453520637 1271.166149068323  333.7241453520637 1271.166149068323  C 333.7241453520637 1271.166149068323  249 1271.166149068323  249 1271.166149068323  C 246.51471862576142 1271.166149068323  244.5 1269.1514304425616  244.5 1266.666149068323  Z " fill-rule="nonzero" fill="#ffffff" stroke="none" />
    <path d="M 244 1266.666149068323  C 244 1266.666149068323  244 1242  244 1242  C 244 1239.238576250846  246.23857625084602 1237  249 1237  C 249 1237  439 1237  439 1237  C 441.761423749154 1237  444 1239.238576250846  444 1242  C 444 1242  444 1266.666149068323  444 1266.666149068323  C 444 1269.4275728174769  441.761423749154 1271.666149068323  439 1271.666149068323  C 439 1271.666149068323  357.5677655677656 1271.666149068323  357.5677655677656 1271.666149068323  C 357.5677655677656 1271.666149068323  344.46886446886447 1285.7713675213674  344.46886446886447 1285.7713675213674  C 344.46886446886447 1285.7713675213674  333.4798534798535 1271.666149068323  333.4798534798535 1271.666149068323  C 333.4798534798535 1271.666149068323  249 1271.666149068323  249 1271.666149068323  C 246.23857625084602 1271.666149068323  244 1269.4275728174769  244 1266.666149068323  Z M 245 1266.666149068323  C 245 1268.8752880676461  246.7908610006768 1270.666149068323  249 1270.666149068323  C 249 1270.666149068323  333.9684372242734 1270.666149068323  333.9684372242734 1270.666149068323  C 333.9684372242734 1270.666149068323  344.5356297313632 1284.22993191438  344.5356297313632 1284.22993191438  C 344.5356297313632 1284.22993191438  357.13172319981436 1270.666149068323  357.13172319981436 1270.666149068323  C 357.13172319981436 1270.666149068323  439 1270.666149068323  439 1270.666149068323  C 441.20913899932316 1270.666149068323  443 1268.8752880676461  443 1266.666149068323  C 443 1266.666149068323  443 1242  443 1242  C 443 1239.7908610006768  441.20913899932316 1238  439 1238  C 439 1238  249 1238  249 1238  C 246.7908610006768 1238  245 1239.7908610006768  245 1242  C 245 1242  245 1266.666149068323  245 1266.666149068323  Z " fill-rule="nonzero" fill="#d7d7d7" stroke="none" />
  </g>
</svg>