<?xml version="1.0" encoding="utf-8"?>
<svg version="1.1" xmlns:xlink="http://www.w3.org/1999/xlink" width="194px" height="49px" xmlns="http://www.w3.org/2000/svg">
  <g transform="matrix(1 0 0 1 -67 -712 )">
    <path d="M 67.5 740.9728260869565  C 67.5 740.9728260869565  67.5 717  67.5 717  C 67.5 714.5147186257615  69.51471862576143 712.5  72 712.5  C 72 712.5  256 712.5  256 712.5  C 258.4852813742386 712.5  260.5 714.5147186257615  260.5 717  C 260.5 717  260.5 740.9728260869565  260.5 740.9728260869565  C 260.5 743.458107461195  258.4852813742386 745.4728260869565  256 745.4728260869565  C 256 745.4728260869565  176.94118866432368 745.4728260869565  176.94118866432368 745.4728260869565  C 176.94118866432368 745.4728260869565  164.4883238103301 759.0206196341228  164.4883238103301 759.0206196341228  C 164.4883238103301 759.0206196341228  154.04128953684585 745.4728260869565  154.04128953684585 745.4728260869565  C 154.04128953684585 745.4728260869565  72 745.4728260869565  72 745.4728260869565  C 69.51471862576143 745.4728260869565  67.5 743.458107461195  67.5 740.9728260869565  Z " fill-rule="nonzero" fill="#ffffff" stroke="none" />
    <path d="M 67 740.9728260869565  C 67 740.9728260869565  67 717  67 717  C 67 714.238576250846  69.23857625084604 712  72 712  C 72 712  256 712  256 712  C 258.761423749154 712  261 714.238576250846  261 717  C 261 717  261 740.9728260869565  261 740.9728260869565  C 261 743.7342498361105  258.761423749154 745.9728260869565  256 745.9728260869565  C 256 745.9728260869565  177.16073260073262 745.9728260869565  177.16073260073262 745.9728260869565  C 177.16073260073262 745.9728260869565  164.45479853479856 759.7959401709401  164.45479853479856 759.7959401709401  C 164.45479853479856 759.7959401709401  153.79545787545788 745.9728260869565  153.79545787545788 745.9728260869565  C 153.79545787545788 745.9728260869565  72 745.9728260869565  72 745.9728260869565  C 69.23857625084604 745.9728260869565  67 743.7342498361105  67 740.9728260869565  Z M 68 740.9728260869565  C 68 743.1819650862797  69.79086100067683 744.9728260869565  72 744.9728260869565  C 72 744.9728260869565  154.28712119823328 744.9728260869565  154.28712119823328 744.9728260869565  C 154.28712119823328 744.9728260869565  164.52184908586162 758.2452990973056  164.52184908586162 758.2452990973056  C 164.52184908586162 758.2452990973056  176.72164472791474 744.9728260869565  176.72164472791474 744.9728260869565  C 176.72164472791474 744.9728260869565  256 744.9728260869565  256 744.9728260869565  C 258.20913899932316 744.9728260869565  260 743.1819650862797  260 740.9728260869565  C 260 740.9728260869565  260 717  260 717  C 260 714.7908610006768  258.20913899932316 713  256 713  C 256 713  72 713  72 713  C 69.79086100067683 713  68 714.7908610006768  68 717  C 68 717  68 740.9728260869565  68 740.9728260869565  Z " fill-rule="nonzero" fill="#d7d7d7" stroke="none" />
  </g>
</svg>