<?xml version="1.0" encoding="utf-8"?>
<svg version="1.1" xmlns:xlink="http://www.w3.org/1999/xlink" width="186px" height="64px" xmlns="http://www.w3.org/2000/svg">
  <g transform="matrix(1 0 0 1 -198 -2074 )">
    <path d="M 198.5 2113.3726708074532  C 198.5 2113.3726708074532  198.5 2079  198.5 2079  C 198.5 2076.5147186257614  200.51471862576142 2074.5  203 2074.5  C 203 2074.5  379 2074.5  379 2074.5  C 381.4852813742386 2074.5  383.5 2076.5147186257614  383.5 2079  C 383.5 2079  383.5 2113.3726708074532  383.5 2113.3726708074532  C 383.5 2115.857952181692  381.4852813742386 2117.8726708074532  379 2117.8726708074532  C 379 2117.8726708074532  303.3522153879621 2117.8726708074532  303.3522153879621 2117.8726708074532  C 303.3522153879621 2117.8726708074532  291.4733102335654 2135.4781718525905  291.4733102335654 2135.4781718525905  C 291.4733102335654 2135.4781718525905  281.5077857751787 2117.8726708074532  281.5077857751787 2117.8726708074532  C 281.5077857751787 2117.8726708074532  203 2117.8726708074532  203 2117.8726708074532  C 200.51471862576142 2117.8726708074532  198.5 2115.857952181692  198.5 2113.3726708074532  Z " fill-rule="nonzero" fill="#ffffff" stroke="none" />
    <path d="M 198 2113.3726708074532  C 198 2113.3726708074532  198 2079  198 2079  C 198 2076.238576250846  200.23857625084602 2074  203 2074  C 203 2074  379 2074  379 2074  C 381.761423749154 2074  384 2076.238576250846  384 2079  C 384 2079  384 2113.3726708074532  384 2113.3726708074532  C 384 2116.1340945566076  381.761423749154 2118.3726708074532  379 2118.3726708074532  C 379 2118.3726708074532  303.618021978022 2118.3726708074532  303.618021978022 2118.3726708074532  C 303.618021978022 2118.3726708074532  291.43604395604393 2136.42735042735  291.43604395604393 2136.42735042735  C 291.43604395604393 2136.42735042735  281.2162637362637 2118.3726708074532  281.2162637362637 2118.3726708074532  C 281.2162637362637 2118.3726708074532  203 2118.3726708074532  203 2118.3726708074532  C 200.23857625084602 2118.3726708074532  198 2116.1340945566076  198 2113.3726708074532  Z M 199 2113.3726708074532  C 199 2115.5818098067766  200.7908610006768 2117.3726708074532  203 2117.3726708074532  C 203 2117.3726708074532  281.7993078140941 2117.3726708074532  281.7993078140941 2117.3726708074532  C 281.7993078140941 2117.3726708074532  291.51057651108687 2134.528993277831  291.51057651108687 2134.528993277831  C 291.51057651108687 2134.528993277831  303.0864087979022 2117.3726708074532  303.0864087979022 2117.3726708074532  C 303.0864087979022 2117.3726708074532  379 2117.3726708074532  379 2117.3726708074532  C 381.20913899932316 2117.3726708074532  383 2115.5818098067766  383 2113.3726708074532  C 383 2113.3726708074532  383 2079  383 2079  C 383 2076.7908610006766  381.20913899932316 2075  379 2075  C 379 2075  203 2075  203 2075  C 200.7908610006768 2075  199 2076.7908610006766  199 2079  C 199 2079  199 2113.3726708074532  199 2113.3726708074532  Z " fill-rule="nonzero" fill="#d7d7d7" stroke="none" />
  </g>
</svg>