<?xml version="1.0" encoding="utf-8"?>
<svg version="1.1" xmlns:xlink="http://www.w3.org/1999/xlink" width="200px" height="50px" xmlns="http://www.w3.org/2000/svg">
  <g transform="matrix(1 0 0 1 -191 -1237 )">
    <path d="M 191.5 1266.666149068323  C 191.5 1266.666149068323  191.5 1242  191.5 1242  C 191.5 1239.5147186257614  193.51471862576142 1237.5  196 1237.5  C 196 1237.5  386 1237.5  386 1237.5  C 388.4852813742386 1237.5  390.5 1239.5147186257614  390.5 1242  C 390.5 1242  390.5 1266.666149068323  390.5 1266.666149068323  C 390.5 1269.1514304425616  388.4852813742386 1271.166149068323  386 1271.166149068323  C 386 1271.166149068323  304.34974438379 1271.166149068323  304.34974438379 1271.166149068323  C 304.34974438379 1271.166149068323  291.50224710011383 1285.0006497178736  291.50224710011383 1285.0006497178736  C 291.50224710011383 1285.0006497178736  280.7241453520637 1271.166149068323  280.7241453520637 1271.166149068323  C 280.7241453520637 1271.166149068323  196 1271.166149068323  196 1271.166149068323  C 193.51471862576142 1271.166149068323  191.5 1269.1514304425616  191.5 1266.666149068323  Z " fill-rule="nonzero" fill="#ffffff" stroke="none" />
    <path d="M 191 1266.666149068323  C 191 1266.666149068323  191 1242  191 1242  C 191 1239.238576250846  193.23857625084602 1237  196 1237  C 196 1237  386 1237  386 1237  C 388.761423749154 1237  391 1239.238576250846  391 1242  C 391 1242  391 1266.666149068323  391 1266.666149068323  C 391 1269.4275728174769  388.761423749154 1271.666149068323  386 1271.666149068323  C 386 1271.666149068323  304.5677655677656 1271.666149068323  304.5677655677656 1271.666149068323  C 304.5677655677656 1271.666149068323  291.46886446886447 1285.7713675213674  291.46886446886447 1285.7713675213674  C 291.46886446886447 1285.7713675213674  280.4798534798535 1271.666149068323  280.4798534798535 1271.666149068323  C 280.4798534798535 1271.666149068323  196 1271.666149068323  196 1271.666149068323  C 193.23857625084602 1271.666149068323  191 1269.4275728174769  191 1266.666149068323  Z M 192 1266.666149068323  C 192 1268.8752880676461  193.7908610006768 1270.666149068323  196 1270.666149068323  C 196 1270.666149068323  280.9684372242734 1270.666149068323  280.9684372242734 1270.666149068323  C 280.9684372242734 1270.666149068323  291.5356297313632 1284.22993191438  291.5356297313632 1284.22993191438  C 291.5356297313632 1284.22993191438  304.13172319981436 1270.666149068323  304.13172319981436 1270.666149068323  C 304.13172319981436 1270.666149068323  386 1270.666149068323  386 1270.666149068323  C 388.20913899932316 1270.666149068323  390 1268.8752880676461  390 1266.666149068323  C 390 1266.666149068323  390 1242  390 1242  C 390 1239.7908610006768  388.20913899932316 1238  386 1238  C 386 1238  196 1238  196 1238  C 193.7908610006768 1238  192 1239.7908610006768  192 1242  C 192 1242  192 1266.666149068323  192 1266.666149068323  Z " fill-rule="nonzero" fill="#d7d7d7" stroke="none" />
  </g>
</svg>