<?xml version="1.0" encoding="utf-8"?>
<svg version="1.1" xmlns:xlink="http://www.w3.org/1999/xlink" width="184px" height="50px" xmlns="http://www.w3.org/2000/svg">
  <g transform="matrix(1 0 0 1 -244 -1237 )">
    <path d="M 244.5 1266.666149068323  C 244.5 1266.666149068323  244.5 1242  244.5 1242  C 244.5 1239.5147186257614  246.51471862576142 1237.5  249 1237.5  C 249 1237.5  423 1237.5  423 1237.5  C 425.4852813742386 1237.5  427.5 1239.5147186257614  427.5 1242  C 427.5 1242  427.5 1266.666149068323  427.5 1266.666149068323  C 427.5 1269.1514304425616  425.4852813742386 1271.166149068323  423 1271.166149068323  C 423 1271.166149068323  348.25189079159225 1271.166149068323  348.25189079159225 1271.166149068323  C 348.25189079159225 1271.166149068323  336.46586494279825 1284.9612383459641  336.46586494279825 1284.9612383459641  C 336.46586494279825 1284.9612383459641  326.57825936495107 1271.166149068323  326.57825936495107 1271.166149068323  C 326.57825936495107 1271.166149068323  249 1271.166149068323  249 1271.166149068323  C 246.51471862576142 1271.166149068323  244.5 1269.1514304425616  244.5 1266.666149068323  Z " fill-rule="nonzero" fill="#ffffff" stroke="none" />
    <path d="M 244 1266.666149068323  C 244 1266.666149068323  244 1242  244 1242  C 244 1239.238576250846  246.23857625084602 1237  249 1237  C 249 1237  423 1237  423 1237  C 425.761423749154 1237  428 1239.238576250846  428 1242  C 428 1242  428 1266.666149068323  428 1266.666149068323  C 428 1269.4275728174769  425.761423749154 1271.666149068323  423 1271.666149068323  C 423 1271.666149068323  348.4823443223443 1271.666149068323  348.4823443223443 1271.666149068323  C 348.4823443223443 1271.666149068323  336.43135531135533 1285.7713675213674  336.43135531135533 1285.7713675213674  C 336.43135531135533 1285.7713675213674  326.32146520146523 1271.666149068323  326.32146520146523 1271.666149068323  C 326.32146520146523 1271.666149068323  249 1271.666149068323  249 1271.666149068323  C 246.23857625084602 1271.666149068323  244 1269.4275728174769  244 1266.666149068323  Z M 245 1266.666149068323  C 245 1268.8752880676461  246.7908610006768 1270.666149068323  249 1270.666149068323  C 249 1270.666149068323  326.8350535284368 1270.666149068323  326.8350535284368 1270.666149068323  C 326.8350535284368 1270.666149068323  336.50037457424116 1284.151109170561  336.50037457424116 1284.151109170561  C 336.50037457424116 1284.151109170561  348.0214372608401 1270.666149068323  348.0214372608401 1270.666149068323  C 348.0214372608401 1270.666149068323  423 1270.666149068323  423 1270.666149068323  C 425.20913899932316 1270.666149068323  427 1268.8752880676461  427 1266.666149068323  C 427 1266.666149068323  427 1242  427 1242  C 427 1239.7908610006768  425.20913899932316 1238  423 1238  C 423 1238  249 1238  249 1238  C 246.7908610006768 1238  245 1239.7908610006768  245 1242  C 245 1242  245 1266.666149068323  245 1266.666149068323  Z " fill-rule="nonzero" fill="#d7d7d7" stroke="none" />
  </g>
</svg>