<?xml version="1.0" encoding="utf-8"?>
<svg version="1.1" xmlns:xlink="http://www.w3.org/1999/xlink" width="145px" height="148px" xmlns="http://www.w3.org/2000/svg">
  <g transform="matrix(1 0 0 1 -67 -2848 )">
    <path d="M 21.067075663716814 94.82149132743363  C 13.480561460176991 75.31342796460179  17.213830265486727 53.81780318584072  29.620229159292034 38.34408884955754  L 29.500232086725664 46.992506831858414  L 46.55994788318585 47.35995311150443  L 47.206609772566374 8.99008868672567  L 9.62133941858407 8.336858598230094  L 9.268014325663719 25.74953403185841  L 17.567902865486726 25.865211499823012  C 0.3888931309734475 46.22508689805311  -4.958001116814161 75.11005043787611  5.2014392814159285 101.2514476060177  C 16.321204414159293 129.8716352166372  43.16728972389381 147.8763984024779  72.31323928141592 147.8763984024779  C 77.23313290973451 147.8763984024779  82.21975605132744 147.3592492060177  87.20637919292034 146.3045700343363  L 83.71971945840708 129.25247760955753  C 57.353881847787605 134.85945629982302  30.999990697345126 120.38631626442478  21.067362378761057 94.82115513168142  Z M 139.79099690265488 46.74027292035398  C 126.79120026548674 13.303602123893805  92.30552433628318 -5.640070442477878  57.799027433628325 1.6952679646017668  L 61.27903128318584 18.747360389380525  C 87.64486889380531 13.14038169911504  113.9987600442478 27.613521734513267  123.93138836283185 53.164747292035386  C 131.52455845132744 72.68674623008849  127.78463376106194 94.20327437168139  115.36492309734516 109.67524676106194  L 115.471587920354 100.95192506194688  L 98.40521623893808 100.62531001769909  L 97.82523266371685 138.98820665486724  L 135.41050301769914 139.58018989026547  L 135.73049748672568 122.16751445663715  L 127.49068257522124 122.05864277522122  C 144.62361310619468 101.71270295221235  149.95002770796458 72.86257835044245  139.7904166460177 46.740342598230065  Z " fill-rule="nonzero" fill="#d7d7d7" stroke="none" transform="matrix(1 0 0 1 67 2848 )" />
  </g>
</svg>