<?xml version="1.0" encoding="utf-8"?>
<svg version="1.1" xmlns:xlink="http://www.w3.org/1999/xlink" width="92px" height="92px" xmlns="http://www.w3.org/2000/svg">
  <g transform="matrix(1 0 0 1 -59 -2541 )">
    <path d="M 13.36669628318584 58.94308920353983  C 8.553183823008851 46.816455221238954  10.921878513274338 33.454310088495575  18.7935247079646 23.835514690265494  L 18.71738863433628 29.21155830088496  L 29.541484174159297 29.43997085309735  L 29.95177999362832 5.588433507964607  L 6.104573975929203 5.1823715610619505  L 5.8803952962831865 16.006467100884958  L 11.146531473274337 16.078374716106197  C 0.24674598654867014 28.734513477168147  -3.145766225840709 46.69003135327434  3.300223544070796 62.94008905238939  C 10.355522800707966 80.73101648601771  27.388901066194695 91.92316657451327  45.88150354407079 91.92316657451327  C 49.00309122548673 91.92316657451327  52.16701763256637 91.60169545238938  55.330944039646006 90.94608407539823  L 53.118718552920356 80.34613473026549  C 36.39004917238938 83.8315539161062  19.66895961486725 74.83473713734514  13.36687819893805 58.942880216991156  Z M 88.69497734513276 29.05476424778761  C 80.44683051327435 8.269806725663717  58.56626371681416 -3.5059897345132756  36.67248637168142 1.053815221238936  L 38.88048881415929 11.653764566371677  C 55.609158194690266 8.168345380530969  72.3302477522124 17.16516215929203  78.6323291681416 33.04835642477875  C 83.45006467256638 45.18365306194689  81.07714693805309 58.55879217699113  73.19705465486727 68.17650474336283  L 73.26473164601771 62.753899362831845  L 62.436413061946915 62.55086838938051  L 62.06842348318586 86.39807440707963  L 85.91562950088496 86.7660639858407  L 86.1186604743363 75.94196844601768  L 80.89063997876106 75.87429145486725  C 91.76118900530973 63.226815348672545  95.14070723539822 45.29295410973449  88.69460918230088 29.054807561061935  Z " fill-rule="nonzero" fill="#d7d7d7" stroke="none" transform="matrix(1 0 0 1 59 2541 )" />
  </g>
</svg>