<?xml version="1.0" encoding="utf-8"?>
<svg version="1.1" xmlns:xlink="http://www.w3.org/1999/xlink" width="304px" height="195px" xmlns="http://www.w3.org/2000/svg">
  <g>
    <path d="M 0 0  L 304 0  L 304 195  L 0 195  L 0 0  " fill-rule="nonzero" fill="#cccccc" stroke="none" />
    <path d="M 14 14  L 290 14  L 290 181  L 14 181  L 14 14  " fill-rule="nonzero" fill="#ffffff" stroke="none" />
    <path d="M 172.705 58.5  C 164.51500000000001 58.5  158.08 52.065  158.08 43.875  C 158.08 35.685  164.51500000000001 29.25  172.705 29.25  C 180.895 29.25  187.33 35.685  187.33 43.875  C 187.33 52.065  180.895 58.5  172.705 58.5  " fill-rule="nonzero" fill="#cccccc" stroke="none" />
    <path d="M 19 176  L 19 89.64999999999999  L 85.5 50.39999999999999  L 178.6 115.57565789473684  L 231.8 73.95  L 285 115.57565789473684  L 285 176  L 19 176  " fill-rule="nonzero" fill="#169bd5" stroke="none" />
  </g>
</svg>