<?xml version="1.0" encoding="utf-8"?>
<svg version="1.1" xmlns:xlink="http://www.w3.org/1999/xlink" width="71px" height="50px" xmlns="http://www.w3.org/2000/svg">
  <g transform="matrix(1 0 0 1 -32 -719 )">
    <path d="M 32.5 748.666149068323  C 32.5 748.666149068323  32.5 724  32.5 724  C 32.5 721.5147186257615  34.51471862576143 719.5  37 719.5  C 37 719.5  98 719.5  98 719.5  C 100.48528137423857 719.5  102.5 721.5147186257615  102.5 724  C 102.5 724  102.5 748.666149068323  102.5 748.666149068323  C 102.5 751.1514304425615  100.48528137423857 753.166149068323  98 753.166149068323  C 98 753.166149068323  77.78802697564409 753.166149068323  77.78802697564409 753.166149068323  C 77.78802697564409 753.166149068323  67.68172745273247 766.9067136280569  67.68172745273247 766.9067136280569  C 67.68172745273247 766.9067136280569  58.305075179504804 753.166149068323  58.305075179504804 753.166149068323  C 58.305075179504804 753.166149068323  37 753.166149068323  37 753.166149068323  C 34.51471862576143 753.166149068323  32.5 751.1514304425615  32.5 748.666149068323  Z " fill-rule="nonzero" fill="#ffffff" stroke="none" />
    <path d="M 32 748.666149068323  C 32 748.666149068323  32 724  32 724  C 32 721.238576250846  34.23857625084603 719  37 719  C 37 719  98 719  98 719  C 100.76142374915396 719  103 721.238576250846  103 724  C 103 724  103 748.666149068323  103 748.666149068323  C 103 751.427572817477  100.76142374915396 753.666149068323  98 753.666149068323  C 98 753.666149068323  78.04095238095238 753.666149068323  78.04095238095238 753.666149068323  C 78.04095238095238 753.666149068323  67.66644688644689 767.7713675213674  67.66644688644689 767.7713675213674  C 67.66644688644689 767.7713675213674  58.04095238095238 753.666149068323  58.04095238095238 753.666149068323  C 58.04095238095238 753.666149068323  37 753.666149068323  37 753.666149068323  C 34.23857625084603 753.666149068323  32 751.427572817477  32 748.666149068323  Z M 33 748.666149068323  C 33 750.8752880676461  34.79086100067683 752.666149068323  37 752.666149068323  C 37 752.666149068323  58.56919797805733 752.666149068323  58.56919797805733 752.666149068323  C 58.56919797805733 752.666149068323  67.69700801901806 766.0420597347463  67.69700801901806 766.0420597347463  C 67.69700801901806 766.0420597347463  77.53510157033578 752.666149068323  77.53510157033578 752.666149068323  C 77.53510157033578 752.666149068323  98 752.666149068323  98 752.666149068323  C 100.20913899932317 752.666149068323  102 750.8752880676461  102 748.666149068323  C 102 748.666149068323  102 724  102 724  C 102 721.7908610006768  100.20913899932317 720  98 720  C 98 720  37 720  37 720  C 34.79086100067683 720  33 721.7908610006768  33 724  C 33 724  33 748.666149068323  33 748.666149068323  Z " fill-rule="nonzero" fill="#d7d7d7" stroke="none" />
  </g>
</svg>