<?xml version="1.0" encoding="utf-8"?>
<svg version="1.1" xmlns:xlink="http://www.w3.org/1999/xlink" width="42px" height="42px" xmlns="http://www.w3.org/2000/svg">
  <g transform="matrix(1 0 0 1 -17 -28 )">
    <path d="M 36.1667578125 29.801348684210524  C 34.82185546875 29.80103389144737  33.51837890625 30.257193749999995  32.4766640625 31.092675986842107  C 31.43494921875 31.928174342105265  30.7190625 33.09176315789473  30.44991796875 34  L 11.54991796875 34  C 11.400276562500002 33.66625592105264  11.110919531250001 32.98151315789474  10.6981875 32.36893256578948  L 32.946703125 10.522024671052636  C 33.905484375 11.133388322368425  35.023406249999994 11.459875000000002  36.1667578125 11.462050986842106  C 37.64586328125 11.461736194078947  39.06992578125001 10.909237500000001  40.15011328125001 9.916294407894737  C 41.230628906250004 8.923722039473684  41.88655078125001 7.5646167763157885  41.98556250000001 6.114603618421054  C 42.08457421875001 4.664590460526316  41.619309375 3.2315822368421054  40.68364453125001 2.106113486842106  C 39.747996093750004 0.9803223684210534  38.411789062500006 0.24588651315789548  36.94580859375 0.05165953947368493  C 35.479828125000004 -0.14289786184210454  33.99333984375 0.21725213815789546  32.7875625 1.058738486842106  C 31.581457031250004 1.9005230263157902  30.746050781250002 3.16074177631579  30.45000000000001 5  L 11.550000000000002 5  C 11.160991406250004 2.712810855263158  9.847851562500002 1.1541595394736848  8.048906250000003 0.429152960526316  C 6.249632812500003 -0.296175986842105  4.200820312500003 -0.09280986842105242  2.5854609375000024 0.971263815789474  C 0.9701835937500025 2.0353213815789477  0.0011484375000022778 3.8203559210526317  0.0011484375000022778 5.7309529605263165  C 0.0011484375000022778 7.641872368421053  0.9701015625000022 9.426826315789475  2.5854609375000024 10.490883881578947  C 4.200738281250002 11.55494144736842  6.249632812500003 11.758355921052631  8.048906250000003 11.032994736842104  C 9.847851562500002 10.307665789473683  11.161007812500005 8.749336842105262  11.550000000000002 7  L 30.45000000000001 7  C 30.600281250000002 7.595274013157893  30.885151171875005 8.279323684210524  31.290164062500004 8.89448322368421  L 9.053132812500007 30.752674013157893  C 7.655074218750006 29.843836842105265  5.926347656250007 29.569904276315793  4.308117187500007 30.000902796052628  C 2.6898867187500066 30.43188519736842  1.3386679687500067 31.526188980263157  0.5990742187500062 33.00457055921052  C -0.14048671874999374 34.48262976973683  -0.1965632812499938 36.20214292763158  0.4446257812500061 37.72420542763158  C 1.0858148437500061 39.24602615131579  2.3624343750000065 40.423396217105264  3.9492468750000063 40.95578766447369  C 5.535731250000007 41.488138815789476  7.278895312500007 41.32380345394737  8.733637500000006 40.50529391447368  C 10.188379687500007 39.686478125  11.214426562500005 38.29247648026316  11.549934375000007 36  L 30.449934375000005 36  C 30.74601796875 38.10268207236842  31.581391406250006 39.36290082236842  32.787496875 40.2046853618421  C 33.99327421875 41.046147532894736  35.47976250000001 41.40631365131579  36.945742968750004 41.21176430921053  C 38.4117234375 41.01752121710526  39.747930468750006 40.283101480263156  40.683578906250006 39.1573103618421  C 41.619227343750005 38.03184161184211  42.08450859375 36.5988333881579  41.98549687500001 35.148820230263155  C 41.886485156250004 33.69880707236842  41.230555078125 32.33978240131579  40.15004765625001 31.347129440789473  C 39.06986015625 30.354234703947363  37.645879687500006 29.801695230263157  36.166692187500004 29.8013728618421  Z M 8.3082890625 8.162690789473682  C 7.652047265625001 8.807427631578946  6.76158984375 9.169769736842103  5.833242187500002 9.169769736842103  C 4.905304687500001 9.169769736842103  4.0147734375000015 8.807419572368419  3.358523437500001 8.162690789473682  C 2.702273437500001 7.517962006578945  2.333460937500001 6.64312664473684  2.333460937500001 5.731065789473682  C 2.333460937500001 4.819407894736841  2.7022816406250008 3.944499999999999  3.358523437500001 3.299763157894736  C 4.014765234375002 2.655026315789472  4.905222656250001 2.292684210526314  5.833242187500002 2.292684210526314  C 6.761507812500001 2.292684210526314  7.652039062500001 2.655034374999998  8.3082890625 3.299763157894736  C 8.9645390625 3.9444919407894723  9.3333515625 4.819327302631577  9.3333515625 5.731065789473682  C 9.3333515625 6.643046052631578  8.964530859375001 7.517953947368419  8.3082890625 8.162690789473682  Z M 32.666484374999996 5.731065789473681  C 32.666484374999996 4.81940789473684  33.035305078125006 3.9444999999999975  33.691546875 3.299763157894734  C 34.347788671875 2.6550263157894713  35.23824609375 2.2926842105263128  36.166593750000004 2.2926842105263128  C 37.09453125000001 2.2926842105263128  37.985062500000005 2.655034374999997  38.641312500000005 3.299763157894734  C 39.297562500000005 3.9444919407894714  39.666375 4.819327302631576  39.666375 5.731065789473681  C 39.666375 6.6430460526315755  39.297554296875 7.517953947368418  38.641312500000005 8.16269078947368  C 37.985070703125004 8.807427631578944  37.094613281250005 9.1697697368421  36.166593750000004 9.1697697368421  C 35.506816406249996 9.167880819078945  34.861148437500006 8.983086184210523  34.30358203125 8.636161348684208  C 33.74634375 8.289550822368419  33.30001171875001 7.794940953947365  33.0164296875 7.209761677631576  C 32.789244140625 6.748871546052628  32.669716406250004 6.243623519736839  32.666517187500006 5.731057730263155  Z M 5.833242187500002 38.971279605263156  C 4.582921875000001 38.971279605263156  3.4274296875 38.315840131578945  2.8022695312500012 37.25208881578947  C 2.1771011718750013 36.188031249999995  2.1771011718750013 34.87744243421052  2.8022695312500012 33.813384868421046  C 3.427437890625001 32.74964967105263  4.582921875000001 32.09419407894737  5.833242187500002 32.09419407894737  C 6.354911718750002 32.09734224835526  6.869214843750002 32.21476792763158  7.338351562500001 32.437967763157886  C 8.062211718750001 32.771353125  8.644125 33.34301710526316  8.98348828125 34.05424243421052  C 9.041807578125 34.159705263157896  9.088914843750002 34.271148026315785  9.123515625 34.38668486842105  C 9.40325859375 35.12586759868421  9.40325859375 35.9396947368421  9.123515625 36.67880493421052  C 8.88286875 37.34778388157894  8.437463671875001 37.92701546052631  7.84817578125 38.33755164473684  C 7.259216015625 38.74807171052631  6.555527343750001 38.96937763157894  5.8333242187500005 38.97127154605263  Z M 36.167078226562495 38.971279605263156  C 35.444817679687496 38.9693906875  34.741129007812496 38.74807976973684  34.152226664062496 38.33755970394736  C 33.56294697656249 37.92703963815789  33.1175665078125 37.34780805921052  32.87688682031249 36.678812993421055  C 32.59714385156249 35.939630263157895  32.59714385156249 35.125803125  32.87688682031249 34.38669292763158  C 33.16367627343749 33.589588651315786  33.739199320312494 32.924349177631576  34.49347666406249 32.517923190789475  C 35.24777861718749 32.11149720394737  36.1280313515625 31.992188651315793  36.96630869531249 32.182643914473694  C 37.80425791406249 32.37342154605264  38.54155478906249 32.86075394736842  39.03726963281249 33.55142023026316  C 39.53298447656249 34.242118749999996  39.75248369531249 35.08831167763158  39.65378369531249 35.92792023026316  C 39.554771976562485 36.767528782894736  39.144615726562485 37.541938322368416  38.50149072656249 38.10326233552632  C 37.85836572656248 38.66458634868422  37.02714307031249 38.97373766447368  36.167127445312495 38.97123930921053  Z " fill-rule="nonzero" fill="#ffffff" stroke="none" transform="matrix(1 0 0 1 17 28 )" />
  </g>
</svg>