<?xml version="1.0" encoding="utf-8"?>
<svg version="1.1" xmlns:xlink="http://www.w3.org/1999/xlink" width="200px" height="50px" xmlns="http://www.w3.org/2000/svg">
  <g transform="matrix(1 0 0 1 -144 -595 )">
    <path d="M 144.5 624.666149068323  C 144.5 624.666149068323  144.5 600  144.5 600  C 144.5 597.5147186257615  146.51471862576142 595.5  149 595.5  C 149 595.5  339 595.5  339 595.5  C 341.4852813742386 595.5  343.5 597.5147186257615  343.5 600  C 343.5 600  343.5 624.666149068323  343.5 624.666149068323  C 343.5 627.1514304425615  341.4852813742386 629.166149068323  339 629.166149068323  C 339 629.166149068323  257.34974438379 629.166149068323  257.34974438379 629.166149068323  C 257.34974438379 629.166149068323  244.50224710011383 643.0006497178736  244.50224710011383 643.0006497178736  C 244.50224710011383 643.0006497178736  233.7241453520637 629.166149068323  233.7241453520637 629.166149068323  C 233.7241453520637 629.166149068323  149 629.166149068323  149 629.166149068323  C 146.51471862576142 629.166149068323  144.5 627.1514304425615  144.5 624.666149068323  Z " fill-rule="nonzero" fill="#ffffff" stroke="none" />
    <path d="M 144 624.666149068323  C 144 624.666149068323  144 600  144 600  C 144 597.238576250846  146.23857625084602 595  149 595  C 149 595  339 595  339 595  C 341.761423749154 595  344 597.238576250846  344 600  C 344 600  344 624.666149068323  344 624.666149068323  C 344 627.427572817477  341.761423749154 629.666149068323  339 629.666149068323  C 339 629.666149068323  257.5677655677656 629.666149068323  257.5677655677656 629.666149068323  C 257.5677655677656 629.666149068323  244.46886446886447 643.7713675213674  244.46886446886447 643.7713675213674  C 244.46886446886447 643.7713675213674  233.4798534798535 629.666149068323  233.4798534798535 629.666149068323  C 233.4798534798535 629.666149068323  149 629.666149068323  149 629.666149068323  C 146.23857625084602 629.666149068323  144 627.427572817477  144 624.666149068323  Z M 145 624.666149068323  C 145 626.8752880676461  146.7908610006768 628.666149068323  149 628.666149068323  C 149 628.666149068323  233.96843722427337 628.666149068323  233.96843722427337 628.666149068323  C 233.96843722427337 628.666149068323  244.5356297313632 642.2299319143798  244.5356297313632 642.2299319143798  C 244.5356297313632 642.2299319143798  257.13172319981436 628.666149068323  257.13172319981436 628.666149068323  C 257.13172319981436 628.666149068323  339 628.666149068323  339 628.666149068323  C 341.20913899932316 628.666149068323  343 626.8752880676461  343 624.666149068323  C 343 624.666149068323  343 600  343 600  C 343 597.7908610006768  341.20913899932316 596  339 596  C 339 596  149 596  149 596  C 146.7908610006768 596  145 597.7908610006768  145 600  C 145 600  145 624.666149068323  145 624.666149068323  Z " fill-rule="nonzero" fill="#d7d7d7" stroke="none" />
  </g>
</svg>