<?xml version="1.0" encoding="utf-8"?>
<svg version="1.1" xmlns:xlink="http://www.w3.org/1999/xlink" width="71px" height="50px" xmlns="http://www.w3.org/2000/svg">
  <g transform="matrix(1 0 0 1 -33 -990 )">
    <path d="M 33.5 1019.666149068323  C 33.5 1019.666149068323  33.5 995  33.5 995  C 33.5 992.5147186257615  35.51471862576143 990.5  38 990.5  C 38 990.5  99 990.5  99 990.5  C 101.48528137423857 990.5  103.5 992.5147186257615  103.5 995  C 103.5 995  103.5 1019.666149068323  103.5 1019.666149068323  C 103.5 1022.1514304425615  101.48528137423857 1024.166149068323  99 1024.166149068323  C 99 1024.166149068323  78.78802697564409 1024.166149068323  78.78802697564409 1024.166149068323  C 78.78802697564409 1024.166149068323  68.68172745273247 1037.9067136280569  68.68172745273247 1037.9067136280569  C 68.68172745273247 1037.9067136280569  59.305075179504804 1024.166149068323  59.305075179504804 1024.166149068323  C 59.305075179504804 1024.166149068323  38 1024.166149068323  38 1024.166149068323  C 35.51471862576143 1024.166149068323  33.5 1022.1514304425615  33.5 1019.666149068323  Z " fill-rule="nonzero" fill="#ffffff" stroke="none" />
    <path d="M 33 1019.666149068323  C 33 1019.666149068323  33 995  33 995  C 33 992.238576250846  35.23857625084603 990  38 990  C 38 990  99 990  99 990  C 101.76142374915396 990  104 992.238576250846  104 995  C 104 995  104 1019.666149068323  104 1019.666149068323  C 104 1022.427572817477  101.76142374915396 1024.666149068323  99 1024.666149068323  C 99 1024.666149068323  79.04095238095238 1024.666149068323  79.04095238095238 1024.666149068323  C 79.04095238095238 1024.666149068323  68.66644688644689 1038.7713675213674  68.66644688644689 1038.7713675213674  C 68.66644688644689 1038.7713675213674  59.04095238095238 1024.666149068323  59.04095238095238 1024.666149068323  C 59.04095238095238 1024.666149068323  38 1024.666149068323  38 1024.666149068323  C 35.23857625084603 1024.666149068323  33 1022.427572817477  33 1019.666149068323  Z M 34 1019.666149068323  C 34 1021.8752880676461  35.79086100067683 1023.666149068323  38 1023.666149068323  C 38 1023.666149068323  59.56919797805733 1023.666149068323  59.56919797805733 1023.666149068323  C 59.56919797805733 1023.666149068323  68.69700801901806 1037.0420597347463  68.69700801901806 1037.0420597347463  C 68.69700801901806 1037.0420597347463  78.53510157033578 1023.666149068323  78.53510157033578 1023.666149068323  C 78.53510157033578 1023.666149068323  99 1023.666149068323  99 1023.666149068323  C 101.20913899932317 1023.666149068323  103 1021.8752880676461  103 1019.666149068323  C 103 1019.666149068323  103 995  103 995  C 103 992.7908610006768  101.20913899932317 991  99 991  C 99 991  38 991  38 991  C 35.79086100067683 991  34 992.7908610006768  34 995  C 34 995  34 1019.666149068323  34 1019.666149068323  Z " fill-rule="nonzero" fill="#d7d7d7" stroke="none" />
  </g>
</svg>