<?xml version="1.0" encoding="utf-8"?>
<svg version="1.1" xmlns:xlink="http://www.w3.org/1999/xlink" width="73px" height="50px" xmlns="http://www.w3.org/2000/svg">
  <g transform="matrix(1 0 0 1 -28 -679 )">
    <path d="M 28.5 708.666149068323  C 28.5 708.666149068323  28.5 684  28.5 684  C 28.5 681.5147186257615  30.51471862576143 679.5  33 679.5  C 33 679.5  96 679.5  96 679.5  C 98.48528137423857 679.5  100.5 681.5147186257615  100.5 684  C 100.5 684  100.5 708.666149068323  100.5 708.666149068323  C 100.5 711.1514304425615  98.48528137423857 713.166149068323  96 713.166149068323  C 96 713.166149068323  74.80341738379165 713.166149068323  74.80341738379165 713.166149068323  C 74.80341738379165 713.166149068323  64.68684681682242 726.9067059163817  64.68684681682242 726.9067059163817  C 64.68684681682242 726.9067059163817  55.3204765221521 713.166149068323  55.3204765221521 713.166149068323  C 55.3204765221521 713.166149068323  33 713.166149068323  33 713.166149068323  C 30.51471862576143 713.166149068323  28.5 711.1514304425615  28.5 708.666149068323  Z " fill-rule="nonzero" fill="#ffffff" stroke="none" />
    <path d="M 28 708.666149068323  C 28 708.666149068323  28 684  28 684  C 28 681.238576250846  30.238576250846034 679  33 679  C 33 679  96 679  96 679  C 98.76142374915396 679  101 681.238576250846  101 684  C 101 684  101 708.666149068323  101 708.666149068323  C 101 711.427572817477  98.76142374915396 713.666149068323  96 713.666149068323  C 96 713.666149068323  75.05619047619048 713.666149068323  75.05619047619048 713.666149068323  C 75.05619047619048 713.666149068323  64.67113553113553 727.7713675213674  64.67113553113553 727.7713675213674  C 64.67113553113553 727.7713675213674  55.05619047619048 713.666149068323  55.05619047619048 713.666149068323  C 55.05619047619048 713.666149068323  33 713.666149068323  33 713.666149068323  C 30.238576250846034 713.666149068323  28 711.427572817477  28 708.666149068323  Z M 29 708.666149068323  C 29 710.8752880676461  30.790861000676827 712.666149068323  33 712.666149068323  C 33 712.666149068323  55.58476256811339 712.666149068323  55.58476256811339 712.666149068323  C 55.58476256811339 712.666149068323  64.7025581025093 726.0420443113959  64.7025581025093 726.0420443113959  C 64.7025581025093 726.0420443113959  74.55064429139281 712.666149068323  74.55064429139281 712.666149068323  C 74.55064429139281 712.666149068323  96 712.666149068323  96 712.666149068323  C 98.20913899932317 712.666149068323  100 710.8752880676461  100 708.666149068323  C 100 708.666149068323  100 684  100 684  C 100 681.7908610006768  98.20913899932317 680  96 680  C 96 680  33 680  33 680  C 30.790861000676827 680  29 681.7908610006768  29 684  C 29 684  29 708.666149068323  29 708.666149068323  Z " fill-rule="nonzero" fill="#d7d7d7" stroke="none" />
  </g>
</svg>